<?xml version="1.0" standalone="no"?>
<!DOCTYPE svg PUBLIC "-//W3C//DTD SVG 1.1//EN" "http://www.w3.org/Graphics/SVG/1.1/DTD/svg11.dtd" >
<svg>
<metadata>
Created by FontForge 20090914 at Thu May  3 16:18:45 2018
 By www-data
Copyright (c) 2005 by Ryoichi Tsunekawa. All rights reserved.
</metadata>
<defs>
<font id="Bebas" horiz-adv-x="1060" >
  <font-face 
    font-family="Bebas"
    font-weight="400"
    font-stretch="normal"
    units-per-em="2048"
    panose-1="0 0 0 0 0 0 0 0 0 0"
    ascent="1638"
    descent="-410"
    x-height="1824"
    cap-height="1824"
    bbox="94.998 -305 1953 2401"
    underline-thickness="73"
    underline-position="-73"
    unicode-range="U+000D-U+00A3"
  />
<missing-glyph horiz-adv-x="1024" 
d="M128 0v1823h768v-1823h-768zM256 128h512v1567h-512v-1567z" />
    <glyph glyph-name=".notdef" horiz-adv-x="1024" 
d="M128 0v1823h768v-1823h-768zM256 128h512v1567h-512v-1567z" />
    <glyph glyph-name="NULL" horiz-adv-x="0" 
 />
    <glyph glyph-name="NULL" horiz-adv-x="0" 
 />
    <glyph glyph-name="nonmarkingreturn" unicode="&#xd;" horiz-adv-x="189" 
 />
    <glyph glyph-name="space" unicode=" " horiz-adv-x="189" 
 />
    <glyph glyph-name="exclam" unicode="!" horiz-adv-x="464" 
d="M95 804v1020h274v-1020l-20 -352h-234zM95 0v275h274v-275h-274z" />
    <glyph glyph-name="quotedbl" unicode="&#x22;" horiz-adv-x="769" 
d="M137 1408l-42 416h254l-42 -416h-170zM463 1408l-43 416h255l-42 -416h-170z" />
    <glyph glyph-name="numbersign" unicode="#" horiz-adv-x="1679" 
d="M1255 1055l-58 -347h284l-42 -276h-287l-71 -432h-275l71 432h-237l-71 -432h-275l71 432h-270l42 276h273l58 347h-270l42 276h273l82 493h275l-82 -493h237l82 493h275l-82 -493h284l-42 -276h-287zM979 1055h-236l-56 -347h235z" />
    <glyph glyph-name="dollar" unicode="$" horiz-adv-x="1100" 
d="M1004 467c3.33301 -157.333 -41.0039 -279.669 -133.004 -367.002c-55.333 -51.333 -123.666 -84.333 -204.999 -99v-128h-233v134c-109.333 28 -193.666 93 -252.999 195c-50 87.333 -78.333 189.333 -85 306l263 19c11.333 -108 39 -184.667 83 -230
c32.667 -36 70.334 -53 113.001 -51c60 2 108 31.667 144 89c18.667 28 28 68 28 120c0 74.667 -34 150 -102 226l-246 231c-84 80.667 -145 154.334 -183 221.001c-47.333 83.333 -71 174 -71 272c0 94 22.333 180 67 258c54 96 134.667 157 242 183v118h233v-118
c74 -16.667 135 -47.667 183 -93c85.333 -80 133 -184.333 143 -313l-265 -48c-7.33301 74 -28.666 132.667 -63.999 176c-23.333 29.333 -59 44 -107 44c-50.667 0 -89 -22.333 -115 -67c-21.333 -36 -32 -80.667 -32 -134c0 -83.333 35.667 -168.666 107 -255.999
c26.667 -31.333 67 -69.666 121 -114.999c64 -52.667 106.667 -90 128 -112c68 -70 120 -137 156 -201c53.333 -94.667 81 -181.334 83 -260.001z" />
    <glyph glyph-name="percent" unicode="%" horiz-adv-x="1455" 
d="M551 1097c0 -62 -22.501 -115.167 -67.501 -159.5s-98.5 -66.5 -160.5 -66.5c-63.333 0 -117.166 22.167 -161.499 66.5s-66.5 97.5 -66.5 159.5v521c0 63.333 22.167 117.333 66.5 162s98.166 67 161.499 67c62.667 0 116.334 -22.667 161.001 -68s67 -99 67 -161v-521z
M235.999 1100c0 -23.333 8 -43 24 -59s35.667 -24 59 -24c22.667 0 42 8 58 24s24 35.667 24 59v521c0 23.333 -8 43 -24 59s-35.333 24 -58 24c-23.333 0 -43 -8 -59 -24s-24 -35.667 -24 -59v-521zM1133 952c63.333 0 117 -22.5 161 -67.5s66 -98.833 66 -161.5v-520
c0 -63.333 -22.333 -116.833 -67 -160.5s-98 -65.5 -160 -65.5c-62.667 0 -116.334 22.167 -161.001 66.5s-67 97.5 -67 159.5v520c0 63.333 22.333 117.333 67 162s98.334 67 161.001 67zM1212 726c0 23.333 -8 43 -24 59s-35.667 24 -59 24s-43 -8 -59 -24
s-24 -35.667 -24 -59v-520c0 -23.333 8 -43 24 -59s35.667 -24 59 -24s43 8 59 24s24 35.667 24 59v520zM342.999 0h-161l931 1824h160z" />
    <glyph glyph-name="ampersand" unicode="&#x26;" horiz-adv-x="1268" 
d="M1167 822c-44 -188.667 -103.336 -347.668 -178.003 -477.001c70.667 -63.333 132.334 -95 185.001 -95v-250c-106.667 0 -216.667 48.333 -330 145c-108.667 -112 -225 -168 -349 -168c-144 0 -253.667 57.667 -329 173c-47.333 72.667 -71 155.667 -71 249
c0 90.667 22.667 185.667 68 285c8 15.333 33.667 58.333 77 129c24 38 48.333 74 73 108l-57 127c-27.333 58 -45.666 99.333 -54.999 124c-19.333 48 -33 91.333 -41 130c-8.66699 42 -13 84.667 -13 128c0 78.667 18 151 54 217c36.667 69.333 90 121.333 160 156
c55.333 29.333 116.333 44 183 44c74.667 0 143 -18.167 205 -54.5s109.667 -86.5 143 -150.5c26 -51.333 39 -107 39 -167c0 -109.333 -38.333 -211.666 -115 -306.999l-60 -76l-149 -193c60.667 -122.667 129.334 -237.667 206.001 -345c45.333 100 80.333 207 105 321z
M399.997 1431c0 -55.333 27.999 -148.001 83.999 -278.001l35 43l37 47l58 74c42.667 54.667 64 107 64 157c0 34.667 -5 61.334 -15 80.001c-24 58.667 -63.667 88 -119 88c-47.333 0 -84.666 -24.667 -111.999 -74c-21.333 -40 -32 -85.667 -32 -137zM494.996 222.998
c54.667 0 113.332 33.999 175.999 101.999c-74.667 93.333 -150 207 -226 341c-17.333 -27.333 -34.666 -56.333 -51.999 -87c-29.333 -64.667 -44 -124.667 -44 -180c0 -49.333 11.333 -89.666 34 -120.999c26 -36.667 63.333 -55 112 -55z" />
    <glyph glyph-name="quotesingle" unicode="'" horiz-adv-x="444" 
d="M95 1823h254l-42 -416h-170z" />
    <glyph glyph-name="parenleft" unicode="(" horiz-adv-x="735" 
d="M636 1935c-52.667 -108.667 -99.333 -219.669 -140 -333.002c-64 -179.333 -106.333 -343.333 -127 -492c-7.33301 -58 -11 -114.333 -11 -169c0 -177.333 47 -405.666 141 -684.999c41.333 -122 88.333 -241.333 141 -358l-177 -90
c-69.333 112.667 -131 232.334 -185 359.001c-122 284.667 -183 542.667 -183 774c0 183.333 38 378 114 584c20 51.333 43 105 69 161c55.333 120 117 230 185 330z" />
    <glyph glyph-name="parenright" unicode=")" horiz-adv-x="733" 
d="M272 2015c66.667 -100 127.667 -210.003 183 -330.003c122.667 -266 184 -514.333 184 -745c0 -232 -61.333 -490 -184 -774c-54 -127.333 -115 -246.666 -183 -357.999l-177 90c53.333 118.667 100.333 237.667 141 357c64 186.667 107 358.334 129 515.001
c8 58.667 12 115.334 12 170.001c0 181.333 -46.667 401.333 -140 660c-40.667 113.333 -86.667 224.333 -138 333z" />
    <glyph glyph-name="asterisk" unicode="*" horiz-adv-x="911" 
d="M816 1477l-223 -39l152 -158l-189 -139l-105 199l-106 -199l-192 139l161 160l-219 37l75 219l199 -97l-32 225h232l-32 -228l208 100z" />
    <glyph glyph-name="plus" unicode="+" horiz-adv-x="1126" 
d="M665 993h366v-203h-366v-367h-204v367h-366v203h366v367h204v-367z" />
    <glyph glyph-name="comma" unicode="," horiz-adv-x="465" 
d="M95 0v273h276v-273l-100 -209h-117l66 209h-125z" />
    <glyph glyph-name="hyphen" unicode="-" horiz-adv-x="1004" 
d="M95 1049h814v-277h-814v277z" />
    <glyph glyph-name="hyphen" unicode="&#x2010;" horiz-adv-x="1004" 
d="M95 1049h814v-277h-814v277z" />
    <glyph glyph-name="period" unicode="." horiz-adv-x="464" 
d="M95 273h274v-274h-274v274z" />
    <glyph glyph-name="slash" unicode="/" horiz-adv-x="1174" 
d="M855 1909h224l-760 -1994h-224z" />
    <glyph glyph-name="zero" unicode="0" 
d="M966 412c0 -121.333 -42.667 -224.167 -128 -308.5s-187.666 -126.5 -306.999 -126.5c-121.333 0 -224.333 42.5 -309 127.5s-127 187.5 -127 307.5v999c0 121.333 42.667 224.333 128 309s188 127 308 127c121.333 0 224.166 -42.667 308.499 -128
s126.5 -188 126.5 -308v-999zM681 1417c0 43.333 -15.5 80.5 -46.5 111.5s-68.5 46.5 -112.5 46.5c-43.333 0 -80.333 -15.5 -111 -46.5s-46 -68.167 -46 -111.5v-1001c0 -43.333 15.333 -80.5 46 -111.5s67.667 -46.5 111 -46.5c44 0 81.5 15.5 112.5 46.5
s46.5 68.167 46.5 111.5v1001z" />
    <glyph glyph-name="one" unicode="1" horiz-adv-x="698" 
d="M327 0l-0.000976562 1404h-232v192c65.333 7.33301 127.833 32.166 187.5 74.499s102.834 93.5 129.501 153.5h192v-1824h-277z" />
    <glyph glyph-name="two" unicode="2" horiz-adv-x="1085" 
d="M99 1331c0 172.667 46.667 304.667 140 396c80 80 185.667 120 317 120c120 0 222.5 -45 307.5 -135s127.5 -195.333 127.5 -316c0 -138.667 -27.667 -265.667 -83 -381c-30 -64 -100.333 -174 -211 -330l-134 -199l-50 -75c-32 -48.667 -56 -87 -72 -115
c-8 -14 -12 -22.333 -12 -25l540 -1v-270h-874v252c0 6 20.333 39.333 61 100c18 28.667 38.667 60 62 94l71 104l197 275c84 118 147 225 189 321c34 78.667 51 159.334 51 242.001c0 55.333 -15.667 102.333 -47 141c-34 40.667 -77.667 61 -131 61
c-76.667 0 -131 -44.333 -163 -133c-10.667 -28.667 -16 -63.334 -16 -104.001v-70h-270v48z" />
    <glyph glyph-name="three" unicode="3" horiz-adv-x="1081" 
d="M522 258c126 0 189.001 58.668 189.001 176.001v109c0 187.333 -98 281 -294 281v236c106 0 184.333 29.667 235 89c46 53.333 69 128 69 224v44c0 119.333 -52.333 179 -157 179c-58 0 -100.667 -22.333 -128 -67c-20 -34 -30 -78.333 -30 -133v-48h-269v43
c0 129.333 33 235 99 317c74.667 92.667 179.667 139 315 139c129.333 0 232.666 -43.667 309.999 -131c70 -78 105 -175.667 105 -293v-80c0 -113.333 -34 -211 -102 -293c-29.333 -35.333 -63.333 -65 -102 -89c81.333 -45.333 144.333 -114.666 189 -207.999
c23.333 -47.333 35 -105 35 -173v-146c0 -134.667 -46 -245.334 -138 -332.001c-88 -83.333 -194.333 -125 -319 -125c-120.667 0 -223.167 42.667 -307.5 128s-126.5 187.666 -126.5 306.999v45l261 20l6 -64c4 -45.333 20.333 -82.5 49 -111.5s65.667 -43.5 111 -43.5z
" />
    <glyph glyph-name="four" unicode="4" horiz-adv-x="1126" 
d="M95 671l485 1153h275v-1153h176v-277h-176v-394h-275v394h-485v277zM580 671v567l-227 -567h227z" />
    <glyph glyph-name="five" unicode="5" horiz-adv-x="1040" 
d="M399 1548l-0.000976562 -395.998c26.667 38.667 64.667 68.667 114 90c26.667 10.667 57.334 16 92.001 16c120 0 208.667 -42.333 266 -127c49.333 -72.667 74 -175.334 74 -308.001v-390c0 -134.667 -42.667 -245 -128 -331c-81.333 -83.333 -184 -125 -308 -125
c-120 0 -220 43.667 -300 131c-76 83.333 -114 185 -114 305v44l263 20l6 -63c6.66699 -72.667 36 -121 88 -145c16 -8 32.667 -12 50 -12c112.667 0 169 58.667 169 176v444c0 53.333 -19.667 97.333 -59 132c-18 16.667 -43.667 25 -77 25c-48 0 -83.667 -19 -107 -57
c-19.333 -32.667 -29 -67.334 -29 -104.001v-50h-277v1001h805v-276h-528z" />
    <glyph glyph-name="six" unicode="6" horiz-adv-x="1018" 
d="M637 1372l-0.000976562 44.999c0 44.667 -11.833 82.167 -35.5 112.5s-57.5 45.5 -101.5 45.5c-43.333 0 -76.833 -15.167 -100.5 -45.5s-35.5 -67.833 -35.5 -112.5v-368c62.667 56 132 84 208 84c120.667 0 211.334 -42 272.001 -126c53.333 -74 80 -176.333 80 -307
v-313h-2c-6 -116 -48 -213.333 -126 -292s-173.667 -118 -287 -118c-121.333 0 -221.333 43.333 -300 130c-76 83.333 -114 185 -114 305v999c0 89.333 21.5 169.833 64.5 241.5s104.167 124.834 183.5 159.501c50.667 23.333 106 35 166 35c120 0 220 -43.667 300 -131
c76.667 -83.333 115 -185 115 -305v-39h-287zM364.999 415.999c0 -44.667 11.334 -81.334 34.001 -110.001c24 -32 57.667 -48 101 -48c44 0 78 16 102 48c23.333 28.667 35 65.334 35 110.001v338c0 52 -19.333 95.667 -58 131c-18.667 16 -44.334 24 -77.001 24
c-47.333 0 -83.333 -18.667 -108 -56c-19.333 -31.333 -29 -66 -29 -104v-333z" />
    <glyph glyph-name="seven" unicode="7" horiz-adv-x="1015" 
d="M921 1824v-276l-386 -1548h-269l386 1548h-557v276h826z" />
    <glyph glyph-name="eight" unicode="8" horiz-adv-x="1082" 
d="M988 412c0 -121.333 -42.666 -224.165 -127.999 -308.498s-188.333 -126.5 -309 -126.5h-22c-120.667 0 -223.167 42.667 -307.5 128s-126.5 187.666 -126.5 306.999v170c0 111.333 37.333 208.666 112 291.999c32 36 69.333 65.667 112 89c-74 38 -131.333 101 -172 189
c-20.667 45.333 -31 102.666 -31 171.999v99c0 118 35 215.667 105 293c77.333 87.333 180 131 308 131h22c129.333 0 232.666 -43.667 309.999 -131c70 -78 105 -175.667 105 -293v-99c0 -114 -34 -208.333 -102 -283c-30 -32.667 -63.333 -58.667 -100 -78
c81.333 -45.333 144.333 -114.666 189 -207.999c23.333 -47.333 35 -105 35 -173v-170zM713.001 545.001c0 108.667 -24.668 181.667 -74.001 219c-23.333 17.333 -56 26 -98 26c-72.667 0 -122 -31 -148 -93c-16 -38 -24 -88.667 -24 -152v-91
c0 -60 18.667 -108.333 56 -145c30.667 -31.333 69.334 -48 116.001 -50c74.667 4 126.667 41 156 111c10.667 23.333 16 51.333 16 84v91zM721 1348c-1.33301 125.333 -40.334 203.999 -117.001 235.999c-18 8 -39 12 -63 12c-47.333 0 -86 -13.333 -116 -40
c-24.667 -21.333 -42 -48.666 -52 -81.999s-14 -75.333 -12 -126c2.66699 -79.333 15.334 -136.333 38.001 -171c28.667 -46.667 76 -70 142 -70s114 24.667 144 74c25.333 42 37.333 97.667 36 167z" />
    <glyph glyph-name="nine" unicode="9" horiz-adv-x="1018" 
d="M509 1847c120 0 220 -43.668 300 -131.001c76.667 -83.333 115 -185 115 -305v-999c0 -121.333 -39.5 -224.166 -118.5 -308.499s-177.833 -126.5 -296.5 -126.5c-121.333 0 -221.333 43.333 -300 130c-76 83.333 -114 185 -114 305v39h285v-45
c0 -44.667 11.833 -82 35.5 -112s57.167 -45 100.5 -45c44 0 77.833 15 101.5 45s35.5 67.333 35.5 112v365c-64 -57.333 -133.333 -86 -208 -86c-120 0 -210 42.333 -270 127c-53.333 74 -80 176.667 -80 308v317h1c4 84.667 28 160.667 72 228s104 117.333 180 150
c49.333 21.333 103 32 161 32zM653 1408c0 44.667 -11.833 82.333 -35.5 113s-57.5 46 -101.5 46c-43.333 0 -76.833 -15.333 -100.5 -46s-35.5 -68.334 -35.5 -113.001v-341c0 -53.333 19.333 -97.666 58 -132.999c17.333 -16.667 43 -25 77 -25c70 0 113.667 37 131 111
c4.66699 22 7 39 7 51v337z" />
    <glyph glyph-name="colon" unicode=":" horiz-adv-x="465" 
d="M95 273h276v-273h-276v273zM95 1047h276v-275h-276v275z" />
    <glyph glyph-name="semicolon" unicode=";" horiz-adv-x="464" 
d="M95 273h274v-274l-98 -210h-117l64 210h-123v274zM95 1047h274v-275h-274v275z" />
    <glyph glyph-name="less" unicode="&#x3c;" horiz-adv-x="1101" 
d="M1007 1388v-232l-627 -259l627 -263v-230l-912 395v199z" />
    <glyph glyph-name="equal" unicode="=" horiz-adv-x="1126" 
d="M95 988v204h936v-204h-936zM95 590v203h936v-203h-936z" />
    <glyph glyph-name="greater" unicode="&#x3e;" horiz-adv-x="1101" 
d="M95 1388l912 -395v-199l-912 -390v230l626 261l-626 261v232z" />
    <glyph glyph-name="question" unicode="?" horiz-adv-x="1057" 
d="M538 1847c147.333 0 258.999 -52.668 334.999 -158.001c60 -83.333 90 -181.333 90 -294c0 -188 -85 -367 -255 -537c-58.667 -59.333 -90 -128 -94 -206c-2 -26.667 -3 -56 -3 -88v-96h-276v96c0 172 42 299.667 126 383c91.333 90 154 182.667 188 278
c19.333 55.333 29 113.333 29 174c0 63.333 -14 113 -42 149c-31.333 41.333 -76.666 58.333 -135.999 51c-55.333 -7.33301 -95 -45.666 -119 -114.999c-10.667 -29.333 -18 -63.333 -22 -102l-264 46c9.33301 114 47 209.667 113 287c44.667 52 106.667 89.667 186 113
c42 12.667 90 19 144 19zM334.999 275.999h276v-276h-276v276z" />
    <glyph glyph-name="at" unicode="@" horiz-adv-x="2048" 
d="M1654 279h299.002l-27 -35c-102 -128 -230.667 -228.333 -386 -301c-151.333 -69.333 -310.333 -104 -477 -104c-275.333 0 -505.5 92.5 -690.5 277.5s-277.5 429.833 -277.5 734.5c0 302.667 86.167 557.667 258.5 765s412.166 311 719.499 311
c185.333 0 335.666 -35.333 450.999 -106c272.667 -166.667 409 -422.667 409 -768c0 -194.667 -54.333 -372 -163 -532c-123.333 -180.667 -278.333 -271 -465 -271c-99.333 0 -164.333 40.333 -195 121c-46 -42 -86.333 -71.667 -121 -89
c-42.667 -21.333 -92.667 -32 -150 -32c-136.667 0 -241.667 55.333 -315 166c-64 95.333 -96 215 -96 359c0 181.333 42.667 349.333 128 504c101.333 184 236 276 404 276c106 0 193.333 -45 262 -135l14 97h275l-158 -1002c0 -16.667 7.33301 -25 22 -25
c56 0 113 30.667 171 92c44 46.667 81 102 111 166c39.333 85.333 59 187 59 305c0 194.667 -57.833 352.5 -173.5 473.5s-270.5 181.5 -464.5 181.5c-223.333 0 -407 -76.5 -551 -229.5s-216 -358.167 -216 -615.5c0 -236 65.667 -427.667 197 -575
c136.667 -154 321.334 -231 554.001 -231c213.333 0 408.666 72 585.999 216zM1094 756c32.667 124.667 49 242.667 49 354c0 57.333 -10 105.333 -30 144c-25.333 49.333 -64.333 74 -117 74c-98.667 0 -173.667 -83.333 -225 -250c-36.667 -118.667 -55 -242 -55 -370
c0 -60 10.667 -112.333 32 -157c28 -58 68.667 -87 122 -87c64 0 115.667 34.333 155 103c22.667 38.667 45.667 101.667 69 189z" />
    <glyph glyph-name="A" unicode="A" horiz-adv-x="1183" 
d="M448 419l-67 -419h-286l309 1824h379l305 -1824h-288l-65 419h-287zM592 1406l-102 -719h204z" />
    <glyph glyph-name="B" unicode="B" horiz-adv-x="1116" 
d="M95 0l-0.000976562 1824h411c108.667 0 206.667 -28.667 294 -86c74.667 -48.667 128 -123.667 160 -225c17.333 -54.667 26 -119.334 26 -194.001c0 -122 -32.333 -220 -97 -294c-27.333 -30.667 -59.333 -54.334 -96 -71.001
c60.667 -23.333 112.334 -69.333 155.001 -138c28.667 -46.667 49.667 -106.667 63 -180c6.66699 -38 10 -80.333 10 -127c0 -115.333 -21.667 -213.333 -65 -294c-34 -62.667 -82 -113 -144 -151c-70 -42.667 -139.333 -64 -208 -64h-509zM390.999 272.002
l115 -0.000976562c93.333 0 158 48 194 144c12.667 32.667 19 70.334 19 113.001c0 102 -19.667 176.333 -59 223c-34.667 42.667 -86 64 -154 64h-115v-544zM390.999 1079l115.001 0.000976562c85.333 0 142.666 41.667 171.999 125c10.667 31.333 16 69.666 16 114.999
c0 76 -18.333 133.333 -55 172c-34 36 -78.333 54 -133 54h-115v-466z" />
    <glyph glyph-name="C" unicode="C" 
d="M531 -23c-121.333 0 -224.333 42.3311 -309 126.998s-127 187.334 -127 308.001v999c0 120.667 42.667 223.5 128 308.5s188 127.5 308 127.5c121.333 0 224.166 -42.667 308.499 -128s126.5 -188 126.5 -308v-208h-285v213c0 44 -15.5 81.5 -46.5 112.5
s-68.5 46.5 -112.5 46.5c-43.333 0 -80.333 -15.5 -111 -46.5s-46 -68.5 -46 -112.5v-1001c0 -44 15.333 -81.333 46 -112s67.667 -46 111 -46c44 0 81.5 15.333 112.5 46s46.5 68 46.5 112v251h285v-254c0 -121.333 -42.667 -224.166 -128 -308.499
s-187.666 -126.5 -306.999 -126.5z" />
    <glyph glyph-name="D" unicode="D" horiz-adv-x="1053" 
d="M959 436c0 -120 -42.332 -222.668 -126.999 -308.001s-186.334 -128 -305.001 -128h-432v1824h432c120 0 222 -42.667 306 -128s126 -187.666 126 -306.999v-953zM369.001 271.999l166.001 -0.000976562c44 0 81 15.833 111 47.5s45 68.834 45 111.501v954
c0 43.333 -15.333 80.5 -46 111.5s-67.334 46.5 -110.001 46.5h-166v-1271z" />
    <glyph glyph-name="E" unicode="E" horiz-adv-x="972" 
d="M95 0v1824h782v-275h-508v-499h371v-276h-371v-499h508v-275h-782z" />
    <glyph glyph-name="F" unicode="F" horiz-adv-x="972" 
d="M369 0h-274v1824h782v-275h-508v-499h371v-276h-371v-774z" />
    <glyph glyph-name="G" unicode="G" 
d="M531 -23c-121.333 0 -224.333 42.667 -309 128s-127 187.666 -127 306.999v999c0 120.667 42.667 223.5 128 308.5s188 127.5 308 127.5c121.333 0 224.166 -42.667 308.499 -128s126.5 -188 126.5 -308v-208h-285v213c0 44 -15.5 81.5 -46.5 112.5
s-68.5 46.5 -112.5 46.5c-43.333 0 -80.333 -15.5 -111 -46.5s-46 -68.5 -46 -112.5v-1001c0 -44 15.333 -81.333 46 -112s67.667 -46 111 -46c44 0 81.5 15.333 112.5 46s46.5 68 46.5 112v359h-153v275h438v-637c0 -121.333 -42.667 -224.166 -128 -308.499
s-187.666 -126.5 -306.999 -126.5z" />
    <glyph glyph-name="H" unicode="H" horiz-adv-x="1071" 
d="M371 772v-772h-276v1824h276v-775h329v775h276v-1824h-276v772h-329z" />
    <glyph glyph-name="I" unicode="I" horiz-adv-x="464" 
d="M369 0h-274v1824h274v-1824z" />
    <glyph glyph-name="J" unicode="J" horiz-adv-x="794" 
d="M700 410c0 -121.333 -42.501 -223.833 -127.501 -307.5s-187.5 -125.5 -307.5 -125.5c-70 0 -126.667 7.66699 -170 23l39 256c30.667 -6.66699 57.334 -10 80.001 -10c13.333 -1.33301 32.666 -1 57.999 1c44.667 3.33301 82.334 19.5 113.001 48.5s46 65.167 46 108.5
v1420h269v-1414z" />
    <glyph glyph-name="K" unicode="K" horiz-adv-x="1158" 
d="M371 576v-576h-276v1824h276v-650l334 650h294l-376 -746l440 -1078h-323l-288 739z" />
    <glyph glyph-name="L" unicode="L" horiz-adv-x="938" 
d="M844 0h-749v1824h274v-1551h475v-273z" />
    <glyph glyph-name="M" unicode="M" horiz-adv-x="1465" 
d="M369 0h-274v1824h394l256 -1308l246 1308h379v-1824h-275v1146l-238 -1146h-221l-267 1143v-1143z" />
    <glyph glyph-name="N" unicode="N" horiz-adv-x="1137" 
d="M404 1824l364 -1225v1225h275v-1824h-295l-379 1168v-1168h-274v1824h309z" />
    <glyph glyph-name="O" unicode="O" 
d="M529 1846c121.333 0 224.5 -42.667 309.5 -128s127.5 -188.333 127.5 -309v-995c0 -121.333 -42.667 -224.5 -128 -309.5s-188.333 -127.5 -309 -127.5s-223.167 42.667 -307.5 128s-126.5 188.333 -126.5 309v995c0 121.333 42.667 224.5 128 309.5
s187.333 127.5 306 127.5zM679 1415c0 44 -15.167 81.167 -45.5 111.5s-67.5 45.5 -111.5 45.5c-43.333 0 -80.5 -15.167 -111.5 -45.5s-46.5 -67.5 -46.5 -111.5v-999c0 -43.333 15.5 -80.333 46.5 -111s68.167 -46 111.5 -46c44 0 81.167 15.333 111.5 46
s45.5 67.667 45.5 111v999z" />
    <glyph glyph-name="P" unicode="P" horiz-adv-x="1053" 
d="M528 1824c134 0 240.667 -42.332 320 -126.999c74 -80.667 111 -183.334 111 -308.001v-265c0 -120 -42 -222.667 -126 -308s-185.667 -128 -305 -128h-159v-688h-274v1824h433zM692 1384c0 48 -14.167 86.5 -42.5 115.5s-66.5 43.5 -114.5 43.5h-166v-583h166
c44 0 81.167 15.5 111.5 46.5s45.5 68.167 45.5 111.5v266z" />
    <glyph glyph-name="Q" unicode="Q" horiz-adv-x="1107" 
d="M966 414c0 -78.667 -19.332 -151.667 -57.999 -219c24 -28 58.667 -42 104 -42v-256c-137.333 0 -231.333 43.333 -282 130c-60.667 -33.333 -127 -50 -199 -50c-121.333 0 -224.333 42.667 -309 128s-127 188.333 -127 309v995c0 121.333 42.667 224.5 128 309.5
s188 127.5 308 127.5c121.333 0 224.166 -43 308.499 -129s126.5 -188.667 126.5 -308v-995zM681.001 1415c0 44 -15.5 81.167 -46.5 111.5s-68.5 45.5 -112.5 45.5c-43.333 0 -80.333 -15.167 -111 -45.5s-46 -67.5 -46 -111.5v-999c0 -43.333 15.333 -80.333 46 -111
s67.667 -46 111 -46c44 0 81.5 15.333 112.5 46s46.5 67.667 46.5 111v999z" />
    <glyph glyph-name="R" unicode="R" horiz-adv-x="1111" 
d="M528 1824c153.333 0 265.667 -42.333 337 -127c63.333 -74 95 -176.667 95 -308v-265c0 -129.333 -49 -238.333 -147 -327l204 -797h-297l-168 689c-8 -0.666992 -16.333 -1 -25 -1h-158v-688h-274v1824h433zM692.001 1384c0 106 -52.333 159 -157 159h-166v-583h166
c44 0 81.167 15.5 111.5 46.5s45.5 68.167 45.5 111.5v266z" />
    <glyph glyph-name="S" unicode="S" horiz-adv-x="1098" 
d="M1004 453c2 -127.333 -31.001 -236 -99.001 -326c-44.667 -61.333 -107.667 -104.333 -189 -129c-44 -14 -95 -21 -153 -21c-108 0 -197.333 26.667 -268 80c-58.667 44 -105.334 103.5 -140.001 178.5s-54.667 161.5 -60 259.5l261 18c12 -106 40.333 -182.667 85 -230
c32.667 -36 70.334 -53 113.001 -51c60 2 108 31.333 144 88c18.667 28.667 28 69 28 121c0 76.667 -34.333 152.334 -103 227.001l-245 231c-91.333 88 -155.666 167 -192.999 237c-40.667 78.667 -61 164 -61 256c0 166 55.667 291.667 167 377
c68.667 51.333 154 77 256 77c98 0 182 -22 252 -66c54 -34 97.667 -81.5 131 -142.5s53.666 -131.167 60.999 -210.5l-264 -48c-7.33301 74.667 -28.666 132.667 -63.999 174c-25.333 30.667 -61.666 46 -108.999 46c-50 0 -88.333 -22.333 -115 -67
c-21.333 -36 -32 -80.667 -32 -134c0 -83.333 36 -168.333 108 -255c27.333 -32.667 68 -71.334 122 -116.001c64 -53.333 106.333 -90.666 127 -111.999c67.333 -68 119.666 -135 156.999 -201c17.333 -30.667 31.333 -59.334 42 -86.001c26 -64.667 39.667 -123 41 -175z
" />
    <glyph glyph-name="T" unicode="T" horiz-adv-x="1047" 
d="M387 1549h-292v275h858v-275h-291v-1549h-275v1549z" />
    <glyph glyph-name="U" unicode="U" 
d="M529 -23c-120.667 0 -223.167 42.167 -307.5 126.5s-126.5 186.5 -126.5 306.5v1414h269v-1411c0 -43.333 15.5 -80.333 46.5 -111s68.167 -46 111.5 -46c44 0 81.167 15.333 111.5 46s45.5 67.667 45.5 111v1411h287v-1414c0 -122 -42.667 -224.667 -128 -308
s-188.333 -125 -309 -125z" />
    <glyph glyph-name="V" unicode="V" horiz-adv-x="1225" 
d="M420 0l-325 1824h288l228 -1420l231 1420h288l-331 -1824h-379z" />
    <glyph glyph-name="W" unicode="W" horiz-adv-x="1607" 
d="M1225 1824h288l-285 -1824h-264l-155 995l-146 -995h-263l-305 1824h288l144 -977l132 977h288l144 -977z" />
    <glyph glyph-name="X" unicode="X" horiz-adv-x="1203" 
d="M1108 0h-295l-211 581l-212 -581h-295l357 918l-357 906h304l203 -562l202 562h304l-357 -906z" />
    <glyph glyph-name="Y" unicode="Y" horiz-adv-x="1201" 
d="M463 764l-368 1060h302l204 -655l202 655h304l-370 -1060v-764h-274v764z" />
    <glyph glyph-name="Z" unicode="Z" horiz-adv-x="992" 
d="M897 1824v-275l-506 -1276h506v-273h-802v273l507 1276h-507v275h802z" />
    <glyph glyph-name="bracketleft" unicode="[" horiz-adv-x="652" 
d="M95 1881h462v-276h-186v-1389h186v-273h-462v1938z" />
    <glyph glyph-name="backslash" unicode="\" horiz-adv-x="1174" 
d="M95 1907h222l762 -1992h-224z" />
    <glyph glyph-name="bracketright" unicode="]" horiz-adv-x="650" 
d="M95 1881h461v-1938h-461v274h186v1388h-186v276z" />
    <glyph glyph-name="asciicircum" unicode="^" horiz-adv-x="777" 
d="M455 1823l227 -511h-189l-103 249l-103 -249h-192l226 511h134z" />
    <glyph glyph-name="underscore" unicode="_" horiz-adv-x="1596" 
d="M95 -305v202h1406v-202h-1406z" />
    <glyph glyph-name="grave" unicode="`" horiz-adv-x="592" 
d="M95 2060h254l148 -418h-170z" />
    <glyph glyph-name="a" unicode="a" horiz-adv-x="1183" 
d="M448 419l-67 -419h-286l309 1824h379l305 -1824h-288l-65 419h-287zM592 1406l-102 -719h204z" />
    <glyph glyph-name="b" unicode="b" horiz-adv-x="1116" 
d="M95 0l-0.000976562 1824h411c108.667 0 206.667 -28.667 294 -86c74.667 -48.667 128 -123.667 160 -225c17.333 -54.667 26 -119.334 26 -194.001c0 -122 -32.333 -220 -97 -294c-27.333 -30.667 -59.333 -54.334 -96 -71.001
c60.667 -23.333 112.334 -69.333 155.001 -138c28.667 -46.667 49.667 -106.667 63 -180c6.66699 -38 10 -80.333 10 -127c0 -115.333 -21.667 -213.333 -65 -294c-34 -62.667 -82 -113 -144 -151c-70 -42.667 -139.333 -64 -208 -64h-509zM390.999 272.002
l115 -0.000976562c93.333 0 158 48 194 144c12.667 32.667 19 70.334 19 113.001c0 102 -19.667 176.333 -59 223c-34.667 42.667 -86 64 -154 64h-115v-544zM390.999 1079l115.001 0.000976562c85.333 0 142.666 41.667 171.999 125c10.667 31.333 16 69.666 16 114.999
c0 76 -18.333 133.333 -55 172c-34 36 -78.333 54 -133 54h-115v-466z" />
    <glyph glyph-name="c" unicode="c" 
d="M531 -23c-121.333 0 -224.333 42.3311 -309 126.998s-127 187.334 -127 308.001v999c0 120.667 42.667 223.5 128 308.5s188 127.5 308 127.5c121.333 0 224.166 -42.667 308.499 -128s126.5 -188 126.5 -308v-208h-285v213c0 44 -15.5 81.5 -46.5 112.5
s-68.5 46.5 -112.5 46.5c-43.333 0 -80.333 -15.5 -111 -46.5s-46 -68.5 -46 -112.5v-1001c0 -44 15.333 -81.333 46 -112s67.667 -46 111 -46c44 0 81.5 15.333 112.5 46s46.5 68 46.5 112v251h285v-254c0 -121.333 -42.667 -224.166 -128 -308.499
s-187.666 -126.5 -306.999 -126.5z" />
    <glyph glyph-name="d" unicode="d" horiz-adv-x="1053" 
d="M959 436c0 -120 -42.332 -222.668 -126.999 -308.001s-186.334 -128 -305.001 -128h-432v1824h432c120 0 222 -42.667 306 -128s126 -187.666 126 -306.999v-953zM369.001 271.999l166.001 -0.000976562c44 0 81 15.833 111 47.5s45 68.834 45 111.501v954
c0 43.333 -15.333 80.5 -46 111.5s-67.334 46.5 -110.001 46.5h-166v-1271z" />
    <glyph glyph-name="e" unicode="e" horiz-adv-x="972" 
d="M95 0v1824h782v-275h-508v-499h371v-276h-371v-499h508v-275h-782z" />
    <glyph glyph-name="f" unicode="f" horiz-adv-x="972" 
d="M369 0h-274v1824h782v-275h-508v-499h371v-276h-371v-774z" />
    <glyph glyph-name="g" unicode="g" 
d="M531 -23c-121.333 0 -224.333 42.667 -309 128s-127 187.666 -127 306.999v999c0 120.667 42.667 223.5 128 308.5s188 127.5 308 127.5c121.333 0 224.166 -42.667 308.499 -128s126.5 -188 126.5 -308v-208h-285v213c0 44 -15.5 81.5 -46.5 112.5
s-68.5 46.5 -112.5 46.5c-43.333 0 -80.333 -15.5 -111 -46.5s-46 -68.5 -46 -112.5v-1001c0 -44 15.333 -81.333 46 -112s67.667 -46 111 -46c44 0 81.5 15.333 112.5 46s46.5 68 46.5 112v359h-153v275h438v-637c0 -121.333 -42.667 -224.166 -128 -308.499
s-187.666 -126.5 -306.999 -126.5z" />
    <glyph glyph-name="h" unicode="h" horiz-adv-x="1071" 
d="M371 772v-772h-276v1824h276v-775h329v775h276v-1824h-276v772h-329z" />
    <glyph glyph-name="i" unicode="i" horiz-adv-x="464" 
d="M369 0h-274v1824h274v-1824z" />
    <glyph glyph-name="j" unicode="j" horiz-adv-x="794" 
d="M700 410c0 -121.333 -42.501 -223.833 -127.501 -307.5s-187.5 -125.5 -307.5 -125.5c-70 0 -126.667 7.66699 -170 23l39 256c30.667 -6.66699 57.334 -10 80.001 -10c13.333 -1.33301 32.666 -1 57.999 1c44.667 3.33301 82.334 19.5 113.001 48.5s46 65.167 46 108.5
v1420h269v-1414z" />
    <glyph glyph-name="k" unicode="k" horiz-adv-x="1158" 
d="M371 576v-576h-276v1824h276v-650l334 650h294l-376 -746l440 -1078h-323l-288 739z" />
    <glyph glyph-name="l" unicode="l" horiz-adv-x="938" 
d="M844 0h-749v1824h274v-1551h475v-273z" />
    <glyph glyph-name="m" unicode="m" horiz-adv-x="1465" 
d="M369 0h-274v1824h394l256 -1308l246 1308h379v-1824h-275v1146l-238 -1146h-221l-267 1143v-1143z" />
    <glyph glyph-name="n" unicode="n" horiz-adv-x="1137" 
d="M404 1824l364 -1225v1225h275v-1824h-295l-379 1168v-1168h-274v1824h309z" />
    <glyph glyph-name="o" unicode="o" 
d="M529 1846c121.333 0 224.5 -42.667 309.5 -128s127.5 -188.333 127.5 -309v-995c0 -121.333 -42.667 -224.5 -128 -309.5s-188.333 -127.5 -309 -127.5s-223.167 42.667 -307.5 128s-126.5 188.333 -126.5 309v995c0 121.333 42.667 224.5 128 309.5
s187.333 127.5 306 127.5zM679 1415c0 44 -15.167 81.167 -45.5 111.5s-67.5 45.5 -111.5 45.5c-43.333 0 -80.5 -15.167 -111.5 -45.5s-46.5 -67.5 -46.5 -111.5v-999c0 -43.333 15.5 -80.333 46.5 -111s68.167 -46 111.5 -46c44 0 81.167 15.333 111.5 46
s45.5 67.667 45.5 111v999z" />
    <glyph glyph-name="p" unicode="p" horiz-adv-x="1053" 
d="M528 1824c134 0 240.667 -42.332 320 -126.999c74 -80.667 111 -183.334 111 -308.001v-265c0 -120 -42 -222.667 -126 -308s-185.667 -128 -305 -128h-159v-688h-274v1824h433zM692 1384c0 48 -14.167 86.5 -42.5 115.5s-66.5 43.5 -114.5 43.5h-166v-583h166
c44 0 81.167 15.5 111.5 46.5s45.5 68.167 45.5 111.5v266z" />
    <glyph glyph-name="q" unicode="q" horiz-adv-x="1107" 
d="M966 414c0 -78.667 -19.332 -151.667 -57.999 -219c24 -28 58.667 -42 104 -42v-256c-137.333 0 -231.333 43.333 -282 130c-60.667 -33.333 -127 -50 -199 -50c-121.333 0 -224.333 42.667 -309 128s-127 188.333 -127 309v995c0 121.333 42.667 224.5 128 309.5
s188 127.5 308 127.5c121.333 0 224.166 -43 308.499 -129s126.5 -188.667 126.5 -308v-995zM681.001 1415c0 44 -15.5 81.167 -46.5 111.5s-68.5 45.5 -112.5 45.5c-43.333 0 -80.333 -15.167 -111 -45.5s-46 -67.5 -46 -111.5v-999c0 -43.333 15.333 -80.333 46 -111
s67.667 -46 111 -46c44 0 81.5 15.333 112.5 46s46.5 67.667 46.5 111v999z" />
    <glyph glyph-name="r" unicode="r" horiz-adv-x="1111" 
d="M528 1824c153.333 0 265.667 -42.333 337 -127c63.333 -74 95 -176.667 95 -308v-265c0 -129.333 -49 -238.333 -147 -327l204 -797h-297l-168 689c-8 -0.666992 -16.333 -1 -25 -1h-158v-688h-274v1824h433zM692.001 1384c0 106 -52.333 159 -157 159h-166v-583h166
c44 0 81.167 15.5 111.5 46.5s45.5 68.167 45.5 111.5v266z" />
    <glyph glyph-name="s" unicode="s" horiz-adv-x="1098" 
d="M1004 453c2 -127.333 -31.001 -236 -99.001 -326c-44.667 -61.333 -107.667 -104.333 -189 -129c-44 -14 -95 -21 -153 -21c-108 0 -197.333 26.667 -268 80c-58.667 44 -105.334 103.5 -140.001 178.5s-54.667 161.5 -60 259.5l261 18c12 -106 40.333 -182.667 85 -230
c32.667 -36 70.334 -53 113.001 -51c60 2 108 31.333 144 88c18.667 28.667 28 69 28 121c0 76.667 -34.333 152.334 -103 227.001l-245 231c-91.333 88 -155.666 167 -192.999 237c-40.667 78.667 -61 164 -61 256c0 166 55.667 291.667 167 377
c68.667 51.333 154 77 256 77c98 0 182 -22 252 -66c54 -34 97.667 -81.5 131 -142.5s53.666 -131.167 60.999 -210.5l-264 -48c-7.33301 74.667 -28.666 132.667 -63.999 174c-25.333 30.667 -61.666 46 -108.999 46c-50 0 -88.333 -22.333 -115 -67
c-21.333 -36 -32 -80.667 -32 -134c0 -83.333 36 -168.333 108 -255c27.333 -32.667 68 -71.334 122 -116.001c64 -53.333 106.333 -90.666 127 -111.999c67.333 -68 119.666 -135 156.999 -201c17.333 -30.667 31.333 -59.334 42 -86.001c26 -64.667 39.667 -123 41 -175z
" />
    <glyph glyph-name="t" unicode="t" horiz-adv-x="1047" 
d="M387 1549h-292v275h858v-275h-291v-1549h-275v1549z" />
    <glyph glyph-name="u" unicode="u" 
d="M529 -23c-120.667 0 -223.167 42.167 -307.5 126.5s-126.5 186.5 -126.5 306.5v1414h269v-1411c0 -43.333 15.5 -80.333 46.5 -111s68.167 -46 111.5 -46c44 0 81.167 15.333 111.5 46s45.5 67.667 45.5 111v1411h287v-1414c0 -122 -42.667 -224.667 -128 -308
s-188.333 -125 -309 -125z" />
    <glyph glyph-name="v" unicode="v" horiz-adv-x="1225" 
d="M420 0l-325 1824h288l228 -1420l231 1420h288l-331 -1824h-379z" />
    <glyph glyph-name="w" unicode="w" horiz-adv-x="1607" 
d="M1225 1824h288l-285 -1824h-264l-155 995l-146 -995h-263l-305 1824h288l144 -977l132 977h288l144 -977z" />
    <glyph glyph-name="x" unicode="x" horiz-adv-x="1203" 
d="M1108 0h-295l-211 581l-212 -581h-295l357 918l-357 906h304l203 -562l202 562h304l-357 -906z" />
    <glyph glyph-name="y" unicode="y" horiz-adv-x="1201" 
d="M463 764l-368 1060h302l204 -655l202 655h304l-370 -1060v-764h-274v764z" />
    <glyph glyph-name="z" unicode="z" horiz-adv-x="992" 
d="M897 1824v-275l-506 -1276h506v-273h-802v273l507 1276h-507v275h802z" />
    <glyph glyph-name="braceleft" unicode="{" horiz-adv-x="780" 
d="M239 1543c0 134.667 35.334 228.667 106.001 282c66.667 51.333 180 77 340 77v-190c-84 0 -141.167 -11.667 -171.5 -35s-45.5 -71 -45.5 -143v-390c0 -46 -12 -91 -36 -135c-26 -47.333 -59.333 -79.333 -100 -96c37.333 -14.667 69.666 -45.334 96.999 -92.001
c26 -42.667 39 -89 39 -139v-391c0 -73.333 15.167 -121 45.5 -143s87.5 -33 171.5 -33v-191c-160 0 -273.333 25.667 -340 77c-70.667 53.333 -106 147.333 -106 282v281c0 100.667 -4.66699 163.334 -14 188.001c-20 55.333 -63.333 85.333 -130 90v141
c66.667 6 110 36.667 130 92c9.33301 22.667 14 84.667 14 186v282z" />
    <glyph glyph-name="bar" unicode="|" horiz-adv-x="451" 
d="M95 2401h261v-2551h-261v2551z" />
    <glyph glyph-name="braceright" unicode="}" horiz-adv-x="780" 
d="M541 1261c0 -101.333 4.66797 -163.333 14.001 -186c20 -55.333 63.333 -86 130 -92v-141c-66.667 -4.66699 -110 -34.667 -130 -90c-9.33301 -24.667 -14 -87.334 -14 -188.001v-281c0 -134.667 -35.333 -228.667 -106 -282c-66.667 -51.333 -180 -77 -340 -77v191
c84 0 141.167 11 171.5 33s45.5 69.667 45.5 143v391c0 50 13 96.333 39 139c27.333 46.667 59.666 77.334 96.999 92.001c-40.667 16.667 -74 48.667 -100 96c-24 44 -36 89 -36 135v390c0 72 -15.167 119.667 -45.5 143s-87.5 35 -171.5 35v190
c160 0 273.333 -25.667 340 -77c70.667 -53.333 106 -147.333 106 -282v-282z" />
    <glyph glyph-name="asciitilde" unicode="~" horiz-adv-x="1079" 
d="M656 931c22 -10 42.334 -15.001 61.001 -15.001c34.667 1.33301 73 30 115 86l153 -113c-82.667 -110.667 -174.334 -164 -275.001 -160c-56.667 0.666992 -130.334 26.334 -221.001 77.001c-65.333 36 -109.666 54 -132.999 54c-32 0 -68.333 -26.667 -109 -80l-152 113
c79.333 108 168.333 160 267 156c46 -1.33301 97 -15.333 153 -42z" />
    <glyph glyph-name="uni007F" horiz-adv-x="745" 
 />
    <glyph glyph-name="sterling" unicode="&#xa3;" horiz-adv-x="1059" 
d="M131 874l173.999 0.000976562c-37.333 67.333 -77.833 145.166 -121.5 233.499s-64.5 191.833 -62.5 310.5c0 128 35.167 231.5 105.5 310.5s175.833 118.5 316.5 118.5c140 0 245.167 -39.5 315.5 -118.5s105.5 -182.5 105.5 -310.5v-131h-270v81
c-1.33301 85.333 -14.5 141.333 -39.5 168s-61.833 40 -110.5 40c-47.333 0 -84.666 -14.167 -111.999 -42.5s-41 -73.833 -41 -136.5c0 -75.333 24.833 -159.666 74.5 -252.999s83.167 -183.333 100.5 -270h330v-250h-311c0 -76.667 -10 -139.167 -30 -187.5
s-58.667 -104.166 -116 -167.499h506v-269h-850v259c73.333 11.333 131.833 40.166 175.5 86.499s70.5 139.166 80.5 278.499h-220v250z" />
    <glyph glyph-name="ch128" horiz-adv-x="745" 
 />
    </font>
</defs>
</svg>
